{"title":"GETAWAY HDRip.flv","uid":9185422,"size":530010609,"categoryP":"video","categoryS":"movies","magnet":"?xt=urn:btih:d1da1a3f08f79a81673f2f7db213d7df931ae4da&amp;dn=GETAWAY+HDRip.flv&amp;tr=udp%3A%2F%2Ftracker.openbittorrent.com%3A80&amp;tr=udp%3A%2F%2Fopen.demonii.com%3A1337&amp;tr=udp%3A%2F%2Ftracker.coppersurfer.tk%3A6969&amp;tr=udp%3A%2F%2Fexodus.desync.com%3A6969","seeders":1,"leechers":0,"uploader":"globeplus","files":-1,"time":1384292678,"description":"GETAWAY HDRip.flv\n\n\nFormat                                   : Flash Video\nFile size                                : 505 MiB\nDuration                                 : 1h 29mn\nOverall bit rate                         : 791 Kbps\nWriting application                      : Encoded By\nTagging application                      : Yet Another Metadata Injector for FLV - Version 1.9\n\nVideo\n\nFormat                                   : AVC\nFormat/Info                              : Advanced Video Codec\nFormat profile                           : &lt;a class=&quot;__cf_email__&quot; href=&quot;/cdn-cgi/l/email-protection&quot; data-cfemail=&quot;85cdece2edc5c9b7abb4&quot;&gt;[email&amp;#160;protected]&lt;/a&gt;&lt;script cf-hash='f9e31' type=&quot;text/javascript&quot;&gt;\n/* &lt;![CDATA[ */!function(){try{var t=&quot;currentScript&quot;in document?document.currentScript:function(){for(var t=document.getElementsByTagName(&quot;script&quot;),e=t.length;e--;)if(t[e].getAttribute(&quot;cf-hash&quot;))return t[e]}();if(t&amp;&amp;t.previousSibling){var e,r,n,i,c=t.previousSibling,a=c.getAttribute(&quot;data-cfemail&quot;);if(a){for(e=&quot;&quot;,r=parseInt(a.substr(0,2),16),n=2;a.length-n;n+=2)i=parseInt(a.substr(n,2),16)^r,e+=String.fromCharCode(i);e=document.createTextNode(e),c.parentNode.replaceChild(e,c)}}}catch(u){}}();/* ]]&gt; */&lt;/script&gt;\nFormat settings, CABAC                   : Yes\nFormat settings, ReFrames                : 4 frames\nCodec ID                                 : 7\nDuration                                 : 1h 29mn\nBit rate                                 : 700 Kbps\nWidth                                    : 640 pixels\nHeight                                   : 272 pixels\nDisplay aspect ratio                     : 2.35:1\nFrame rate mode                          : Constant\nFrame rate                               : 23.976 fps\nColor space                              : YUV\nChroma subsampling                       : 4:2:0\nBit depth                                : 8 bits\nScan type                                : Progressive\nBits/(Pixel*Frame)                       : 0.168\nStream size                              : 440 MiB (87%)\n\n\nAudio\n\nFormat                                   : AAC\nFormat/Info                              : Advanced Audio Codec\nFormat profile                           : LC\nCodec ID                                 : 10\nDuration                                 : 1h 29mn\nBit rate                                 : 94.4 Kbps\nChannel(s)                               : 2 channels\nChannel positions                        : Front: L R\nSampling rate                            : 44.1 KHz\nCompression mode                         : Lossy\nDelay relative to video                  : 19ms\nStream size                              : 64.2 MiB (13%)\n\n\n\nPlot\n\nWashed up former race driver Brent Magna (Ethan Hawke) arrives home to find his house ransacked and his wife, Leanne, missing. Suddenly, his phone rings. On the other end is a mysterious man known only as The Voice (Jon Voight) who reveals himself as the kidnapper of Magna's wife. The man tells Magna that he must follow a set of instructions precisely in order to be reunited with his wife. The Voice orders Magna to steal a specially customised Shelby Mustang from a parking garage. The Voice warns Magna that if he does not follow the instructions or is caught, Leanne will die.\n\n\n\n* enjoy ...","torrent":{"xt":"urn:btih:d1da1a3f08f79a81673f2f7db213d7df931ae4da","amp;dn":"GETAWAY+HDRip.flv","amp;tr":["udp%3A%2F%2Ftracker.openbittorrent.com%3A80","udp%3A%2F%2Fopen.demonii.com%3A1337","udp%3A%2F%2Ftracker.coppersurfer.tk%3A6969","udp%3A%2F%2Fexodus.desync.com%3A6969"],"infoHash":"d1da1a3f08f79a81673f2f7db213d7df931ae4da","infoHashBuffer":{"type":"Buffer","data":[209,218,26,63,8,247,154,129,103,63,47,125,178,19,215,223,147,26,228,218]},"announce":[],"urlList":[]}}